<svg width="26" height="24" viewBox="0 0 26 24" fill="none" xmlns="http://www.w3.org/2000/svg">
<g clip-path="url(#clip0_461_129)">
<mask id="mask0_461_129" style="mask-type:luminance" maskUnits="userSpaceOnUse" x="0" y="0" width="26" height="24">
<path d="M25.7143 0H0V24H25.7143V0Z" fill="white"/>
</mask>
<g mask="url(#mask0_461_129)">
<path d="M24.4706 14.0146C23.7984 14.0146 23.2269 14.6103 23.2269 15.311V21.4074H2.48739V15.311C2.48739 14.6103 1.91597 14.0146 1.2437 14.0146C0.571428 14.0146 0 14.6103 0 15.311V22.7037C0 23.4045 0.571428 24 1.2437 24H24.4706C25.1429 24 25.7143 23.4045 25.7143 22.7037V15.311C25.7143 14.6103 25.1765 14.0146 24.4706 14.0146Z" fill="#AAAAAA"/>
<path d="M11.9321 18.7795C12.1674 19.0598 12.5035 19.2 12.8396 19.2C13.1758 19.2 13.5119 19.0598 13.7472 18.7795L19.596 12.1226C20.0666 11.5971 20.033 10.7562 19.5288 10.3007C19.0244 9.81022 18.2177 9.84526 17.7807 10.3708L14.1169 14.5752V1.29635C14.1169 0.59562 13.5455 0 12.8732 0C12.201 0 11.6295 0.59562 11.6295 1.29635V14.5752L7.93206 10.4058C7.46147 9.88028 6.68836 9.84526 6.18417 10.3358C5.67996 10.8263 5.64635 11.6321 6.11694 12.1577L11.9321 18.7795Z" fill="#AAAAAA"/>
</g>
</g>
<defs>
<clipPath id="clip0_461_129">
<rect width="25.7143" height="24" fill="white"/>
</clipPath>
</defs>
</svg>
